<svg width="309" height="128" viewBox="0 0 309 128" fill="none" xmlns="http://www.w3.org/2000/svg">
<g clip-path="url(#clip0_39_25)">
<path d="M111.237 24.7655C127.287 24.5818 143.626 24.7378 159.693 24.7378L248.62 24.746C239.38 34.0162 229.614 43.3471 220.23 52.5069C213.907 52.2763 206.603 52.445 200.189 52.4444L163.117 52.4443L131.27 52.4461C120.707 52.4421 105.983 51.944 95.9856 54.6868C87.0744 57.2004 78.2626 66.7303 71.7016 73.0807L54.1702 89.8267C52.0128 91.9205 49.7985 93.9843 47.7269 96.1614C46.7117 97.2283 45.7691 98.2396 44.6792 99.2328L2.47937 99.2475C3.99276 97.8412 5.39962 96.1721 6.8623 94.6966L17.3755 84.2664C18.6844 82.9869 20.1209 81.7895 21.4096 80.5156C25.5447 76.4224 29.6928 72.3395 33.8146 68.2327C37.58 64.4806 41.4105 60.7992 45.0443 56.9196C49.9942 51.7297 55.1553 46.7445 60.5145 41.9767C78.1585 26.2455 88.0276 25.5234 111.237 24.7655Z" fill="#686868"/>
<path d="M215.571 56.8553L215.724 57.0678C215.63 57.3463 215.393 57.7634 215.185 57.9608C210.882 62.0226 206.639 66.2466 202.46 70.4235L194.578 78.3116C193.069 79.8226 191.307 81.6791 189.715 83.0636C187.757 83.1938 184.505 83.095 182.441 83.0946L168.428 83.0917C151.974 83.0884 135.501 83.0532 119.047 83.1056C109.108 83.1372 106.59 84.1344 99.6908 90.9679L91.4449 99.2399L52.6947 99.2226C52.5701 99.1166 52.6261 99.1771 52.6019 98.9369C54.6777 96.7448 56.2962 95.0112 58.5301 92.9465C61.744 89.9763 64.874 86.6723 67.9858 83.564L78.2112 73.3506C82.1857 69.3817 87.7386 63.4252 92.7594 61.005C101.953 56.5731 114.591 56.8602 124.549 56.8591L145.836 56.8611L215.571 56.8553Z" fill="#686868"/>
<path d="M254.631 24.7458C259.569 24.6032 265.221 24.7384 270.205 24.7385L301.028 24.7366C297.944 27.642 294.786 30.9649 291.736 33.9606L264.539 61.0378C251.751 73.8293 238.838 86.249 226.222 99.2398L179.938 99.2248C181.528 97.7446 182.995 95.977 184.533 94.4261L196.764 82.2039L210.174 68.8232C213.141 65.9163 216.238 63.208 219.108 60.1659C220.602 58.5817 222.122 56.9198 223.64 55.379C233.808 45.0046 244.139 34.7923 254.631 24.7458Z" fill="#686868"/>
</g>
<defs>
<clipPath id="clip0_39_25">
<rect width="309" height="128" fill="white"/>
</clipPath>
</defs>
</svg>
