<svg width="14" height="14" viewBox="0 0 14 14" fill="none" xmlns="http://www.w3.org/2000/svg">
<path d="M6.18621 5.26615L3.61813 2.69266C3.27249 2.34628 3.2756 1.78158 3.6251 1.43136C3.97459 1.08113 4.53811 1.078 4.88375 1.42437L9.42534 5.93077C10.976 7.48471 11.8699 9.52165 10.1389 11.6266L9.95431 11.8116C8.59491 13.1738 6.39084 13.1738 5.0314 11.8116L3.17131 9.97414C2.82567 9.62776 2.83272 9.05913 3.18708 8.70405C3.523 8.36741 4.05042 8.34355 4.39884 8.63703M6.18621 5.26615L7.64985 6.73285M6.18621 5.26615C5.84058 4.91978 5.25824 4.92785 4.90233 5.28451C4.54642 5.64116 4.53811 6.21106 4.88375 6.55744L5.30833 6.98293M4.39884 8.63703L4.03412 8.2823C3.68847 7.93592 3.69679 7.366 4.0527 7.00935C4.4086 6.6527 4.96268 6.63654 5.30833 6.98293M4.39884 8.63703L5.05823 9.27828M4.39884 8.63703C4.41797 8.65313 4.43656 8.67022 4.45455 8.68824M5.30833 6.98293L6.34884 8.02564M7.07935 3.60298C7.177 2.7065 8.23873 1.77718 9.56447 2.41404C9.69035 2.47452 9.7901 2.58893 9.79127 2.72883C9.79308 2.95419 9.69414 3.23242 9.37704 3.41691C8.92344 3.68081 8.18039 4.68916 9.17229 5.68314" stroke="#686868" stroke-linecap="round" stroke-linejoin="round"/>
</svg>
