<svg width="195" height="1080" viewBox="0 0 195 1080" fill="none" xmlns="http://www.w3.org/2000/svg">
<ellipse cx="11.8613" cy="8.38358" rx="4.80157" ry="8.38358" fill="#EFB223"/>
<ellipse cx="32.0945" cy="9.5316" rx="5.45909" ry="9.5316" fill="#EFB223"/>
<ellipse cx="49.1564" cy="5.14245" rx="2.94527" ry="5.14245" fill="#EFB223"/>
<ellipse cx="69.6581" cy="6.75928" rx="3.87128" ry="6.75928" fill="#EFB223"/>
<ellipse cx="88.9237" cy="6.21793" rx="3.56123" ry="6.21793" fill="#EFB223"/>
<ellipse cx="107.664" cy="4.75847" rx="2.72535" ry="4.75847" fill="#EFB223"/>
<ellipse cx="129.407" cy="8.5435" rx="4.89317" ry="8.5435" fill="#EFB223"/>
<ellipse cx="146.692" cy="4.54375" rx="2.60237" ry="4.54375" fill="#EFB223"/>
<ellipse cx="166.976" cy="5.78" rx="3.31041" ry="5.78" fill="#EFB223"/>
<ellipse cx="187.779" cy="7.92358" rx="4.53812" ry="7.92358" fill="#EFB223"/>
<ellipse cx="12.8629" cy="44.3118" rx="5.80324" ry="10.1325" fill="#EFB223"/>
<ellipse cx="32.4604" cy="44.3498" rx="5.82499" ry="10.1705" fill="#EFB223"/>
<ellipse cx="48.4409" cy="38.0725" rx="2.2298" ry="3.89324" fill="#EFB223"/>
<ellipse cx="67.7663" cy="37.6356" rx="1.97954" ry="3.4563" fill="#EFB223"/>
<ellipse cx="88.049" cy="38.87" rx="2.68655" ry="4.69074" fill="#EFB223"/>
<ellipse cx="109.262" cy="41.7289" rx="4.32391" ry="7.54958" fill="#EFB223"/>
<ellipse cx="126.94" cy="38.4155" rx="2.42621" ry="4.23618" fill="#EFB223"/>
<ellipse cx="146.216" cy="37.8927" rx="2.1268" ry="3.71341" fill="#EFB223"/>
<ellipse cx="169.018" cy="43.5248" rx="5.35249" ry="9.34549" fill="#EFB223"/>
<ellipse cx="187.673" cy="41.9185" rx="4.43252" ry="7.73921" fill="#EFB223"/>
<ellipse cx="11.9707" cy="76.9333" rx="4.91101" ry="8.57466" fill="#EFB223"/>
<ellipse cx="32.4947" cy="78.589" rx="5.85932" ry="10.2304" fill="#EFB223"/>
<ellipse cx="51.8288" cy="78.1673" rx="5.61776" ry="9.80865" fill="#EFB223"/>
<ellipse cx="71.5539" cy="78.4281" rx="5.76715" ry="10.0695" fill="#EFB223"/>
<ellipse cx="91.0494" cy="78.2881" rx="5.68695" ry="9.92946" fill="#EFB223"/>
<ellipse cx="107.087" cy="72.1103" rx="2.14874" ry="3.75171" fill="#EFB223"/>
<ellipse cx="127.11" cy="72.891" rx="2.59583" ry="4.53235" fill="#EFB223"/>
<ellipse cx="148.727" cy="76.4564" rx="4.63789" ry="8.0978" fill="#EFB223"/>
<ellipse cx="168.234" cy="76.3363" rx="4.56913" ry="7.97774" fill="#EFB223"/>
<ellipse cx="188.387" cy="77.3441" rx="5.14629" ry="8.98545" fill="#EFB223"/>
<ellipse cx="12.8196" cy="112.595" rx="5.75992" ry="10.0569" fill="#EFB223"/>
<ellipse cx="30.1276" cy="108.635" rx="3.49216" ry="6.09733" fill="#EFB223"/>
<ellipse cx="51.2789" cy="111.386" rx="5.06783" ry="8.84848" fill="#EFB223"/>
<ellipse cx="70.1376" cy="110.135" rx="4.35087" ry="7.59665" fill="#EFB223"/>
<ellipse cx="89.0046" cy="108.897" rx="3.6421" ry="6.35913" fill="#EFB223"/>
<ellipse cx="110.464" cy="112.186" rx="5.52588" ry="9.64822" fill="#EFB223"/>
<ellipse cx="127.461" cy="107.683" rx="2.94701" ry="5.1455" fill="#EFB223"/>
<ellipse cx="148.382" cy="110.032" rx="4.29234" ry="7.49446" fill="#EFB223"/>
<ellipse cx="165.768" cy="106.209" rx="2.10245" ry="3.6709" fill="#EFB223"/>
<ellipse cx="188.046" cy="110.927" rx="4.80495" ry="8.38948" fill="#EFB223"/>
<ellipse cx="10.3614" cy="142.482" rx="3.30166" ry="5.76472" fill="#EFB223"/>
<ellipse cx="31.9716" cy="146.034" rx="5.33618" ry="9.317" fill="#EFB223"/>
<ellipse cx="50.3456" cy="143.936" rx="4.13448" ry="7.21883" fill="#EFB223"/>
<ellipse cx="69.263" cy="142.787" rx="3.47626" ry="6.06957" fill="#EFB223"/>
<ellipse cx="90.02" cy="144.849" rx="4.65754" ry="8.13209" fill="#EFB223"/>
<ellipse cx="107.697" cy="141.534" rx="2.75846" ry="4.8163" fill="#EFB223"/>
<ellipse cx="128.434" cy="143.562" rx="3.92022" ry="6.84474" fill="#EFB223"/>
<ellipse cx="149.53" cy="146.215" rx="5.43998" ry="9.49825" fill="#EFB223"/>
<ellipse cx="169.136" cy="146.269" rx="5.47041" ry="9.55137" fill="#EFB223"/>
<ellipse cx="186.799" cy="142.929" rx="3.55757" ry="6.21155" fill="#EFB223"/>
<ellipse cx="11.3202" cy="178.335" rx="4.26053" ry="7.43891" fill="#EFB223"/>
<ellipse cx="30.1629" cy="177.055" rx="3.52745" ry="6.15895" fill="#EFB223"/>
<ellipse cx="48.204" cy="174.376" rx="1.99295" ry="3.4797" fill="#EFB223"/>
<ellipse cx="69.9463" cy="178.159" rx="4.15956" ry="7.26263" fill="#EFB223"/>
<ellipse cx="91.1073" cy="180.927" rx="5.7448" ry="10.0305" fill="#EFB223"/>
<ellipse cx="108.166" cy="176.533" rx="3.22813" ry="5.63634" fill="#EFB223"/>
<ellipse cx="130.162" cy="180.758" rx="5.64779" ry="9.86108" fill="#EFB223"/>
<ellipse cx="148.971" cy="179.419" rx="4.88141" ry="8.52297" fill="#EFB223"/>
<ellipse cx="166.068" cy="175.092" rx="2.4027" ry="4.19513" fill="#EFB223"/>
<ellipse cx="185.794" cy="175.355" rx="2.5533" ry="4.45809" fill="#EFB223"/>
<ellipse cx="11.7835" cy="213.324" rx="4.72378" ry="8.24775" fill="#EFB223"/>
<ellipse cx="31.0942" cy="212.861" rx="4.4588" ry="7.78509" fill="#EFB223"/>
<ellipse cx="49.5939" cy="210.982" rx="3.38278" ry="5.90636" fill="#EFB223"/>
<ellipse cx="67.8731" cy="208.719" rx="2.08635" ry="3.64279" fill="#EFB223"/>
<ellipse cx="91.1836" cy="215.24" rx="5.82111" ry="10.1637" fill="#EFB223"/>
<ellipse cx="108.128" cy="210.645" rx="3.1898" ry="5.56941" fill="#EFB223"/>
<ellipse cx="129.132" cy="213.14" rx="4.61844" ry="8.06383" fill="#EFB223"/>
<ellipse cx="147.404" cy="210.862" rx="3.31418" ry="5.78658" fill="#EFB223"/>
<ellipse cx="166.409" cy="209.867" rx="2.7438" ry="4.7907" fill="#EFB223"/>
<ellipse cx="185.709" cy="209.384" rx="2.46754" ry="4.30834" fill="#EFB223"/>
<ellipse cx="12.0384" cy="247.948" rx="4.97872" ry="8.69289" fill="#EFB223"/>
<ellipse cx="32.4449" cy="249.398" rx="5.80946" ry="10.1434" fill="#EFB223"/>
<ellipse cx="50.6802" cy="247.058" rx="4.46908" ry="7.80304" fill="#EFB223"/>
<ellipse cx="70.1127" cy="246.808" rx="4.32595" ry="7.55314" fill="#EFB223"/>
<ellipse cx="90.8518" cy="248.839" rx="5.48928" ry="9.58433" fill="#EFB223"/>
<ellipse cx="108.278" cy="245.086" rx="3.33979" ry="5.8313" fill="#EFB223"/>
<ellipse cx="128.604" cy="246.396" rx="4.0898" ry="7.14083" fill="#EFB223"/>
<ellipse cx="148.458" cy="246.883" rx="4.36878" ry="7.62792" fill="#EFB223"/>
<ellipse cx="167.048" cy="245.162" rx="3.38318" ry="5.90706" fill="#EFB223"/>
<ellipse cx="187.337" cy="246.407" rx="4.09614" ry="7.15188" fill="#EFB223"/>
<ellipse cx="9.48396" cy="277.667" rx="2.42427" ry="4.23279" fill="#EFB223"/>
<ellipse cx="30.1955" cy="279.65" rx="3.56005" ry="6.21587" fill="#EFB223"/>
<ellipse cx="48.9927" cy="278.291" rx="2.78164" ry="4.85677" fill="#EFB223"/>
<ellipse cx="68.9518" cy="278.961" rx="3.165" ry="5.52611" fill="#EFB223"/>
<ellipse cx="89.8886" cy="281.337" rx="4.52615" ry="7.9027" fill="#EFB223"/>
<ellipse cx="110.721" cy="283.531" rx="5.78276" ry="10.0967" fill="#EFB223"/>
<ellipse cx="127.325" cy="278.343" rx="2.81159" ry="4.90905" fill="#EFB223"/>
<ellipse cx="149.669" cy="283.177" rx="5.57988" ry="9.74252" fill="#EFB223"/>
<ellipse cx="167.881" cy="280.795" rx="4.21548" ry="7.36026" fill="#EFB223"/>
<ellipse cx="185.383" cy="277.174" rx="2.14169" ry="3.7394" fill="#EFB223"/>
<ellipse cx="10.353" cy="313.364" rx="3.29329" ry="5.75011" fill="#EFB223"/>
<ellipse cx="29.0777" cy="311.878" rx="2.4423" ry="4.26428" fill="#EFB223"/>
<ellipse cx="52.0667" cy="317.838" rx="5.8556" ry="10.2239" fill="#EFB223"/>
<ellipse cx="71.0911" cy="316.875" rx="5.30432" ry="9.26138" fill="#EFB223"/>
<ellipse cx="89.8805" cy="315.502" rx="4.51798" ry="7.88843" fill="#EFB223"/>
<ellipse cx="107.037" cy="311.279" rx="2.09925" ry="3.66531" fill="#EFB223"/>
<ellipse cx="129.161" cy="315.727" rx="4.64696" ry="8.11362" fill="#EFB223"/>
<ellipse cx="148.384" cy="315.111" rx="4.29413" ry="7.49758" fill="#EFB223"/>
<ellipse cx="167.918" cy="315.04" rx="4.25317" ry="7.42607" fill="#EFB223"/>
<ellipse cx="187.013" cy="314.2" rx="3.7723" ry="6.58646" fill="#EFB223"/>
<ellipse cx="12.0328" cy="350.476" rx="4.97314" ry="8.68314" fill="#EFB223"/>
<ellipse cx="31.6505" cy="350.549" rx="5.01505" ry="8.75632" fill="#EFB223"/>
<ellipse cx="49.5209" cy="347.572" rx="3.30985" ry="5.77902" fill="#EFB223"/>
<ellipse cx="67.9529" cy="345.575" rx="2.1661" ry="3.78202" fill="#EFB223"/>
<ellipse cx="90.3241" cy="350.456" rx="4.96156" ry="8.66292" fill="#EFB223"/>
<ellipse cx="109.544" cy="349.835" rx="4.60576" ry="8.0417" fill="#EFB223"/>
<ellipse cx="128.426" cy="348.623" rx="3.91187" ry="6.83015" fill="#EFB223"/>
<ellipse cx="148.795" cy="350.009" rx="4.70548" ry="8.2158" fill="#EFB223"/>
<ellipse cx="168.431" cy="350.114" rx="4.7658" ry="8.32112" fill="#EFB223"/>
<ellipse cx="185.468" cy="345.681" rx="2.22681" ry="3.88803" fill="#EFB223"/>
<ellipse cx="10.8804" cy="382.643" rx="3.8207" ry="6.67097" fill="#EFB223"/>
<ellipse cx="32.3535" cy="385.956" rx="5.71807" ry="9.98379" fill="#EFB223"/>
<ellipse cx="50.0601" cy="382.693" rx="3.84897" ry="6.72033" fill="#EFB223"/>
<ellipse cx="70.2297" cy="383.73" rx="4.44296" ry="7.75744" fill="#EFB223"/>
<ellipse cx="87.4624" cy="379.639" rx="2.09989" ry="3.66642" fill="#EFB223"/>
<ellipse cx="107.256" cy="380.019" rx="2.31779" ry="4.04688" fill="#EFB223"/>
<ellipse cx="130.312" cy="386.096" rx="5.79827" ry="10.1238" fill="#EFB223"/>
<ellipse cx="147.607" cy="382.114" rx="3.5175" ry="6.14157" fill="#EFB223"/>
<ellipse cx="168.022" cy="383.58" rx="4.35714" ry="7.6076" fill="#EFB223"/>
<ellipse cx="186.87" cy="382.308" rx="3.62885" ry="6.33599" fill="#EFB223"/>
<ellipse cx="10.067" cy="415.402" rx="3.00729" ry="5.25074" fill="#EFB223"/>
<ellipse cx="31.2779" cy="418.257" rx="4.64247" ry="8.10579" fill="#EFB223"/>
<ellipse cx="50.3573" cy="417.391" rx="4.14617" ry="7.23924" fill="#EFB223"/>
<ellipse cx="68.9294" cy="415.639" rx="3.14258" ry="5.48696" fill="#EFB223"/>
<ellipse cx="90.6678" cy="419.415" rx="5.30533" ry="9.26315" fill="#EFB223"/>
<ellipse cx="110.29" cy="419.496" rx="5.35161" ry="9.34395" fill="#EFB223"/>
<ellipse cx="127.373" cy="415.144" rx="2.85907" ry="4.99196" fill="#EFB223"/>
<ellipse cx="148.525" cy="417.896" rx="4.43559" ry="7.74457" fill="#EFB223"/>
<ellipse cx="168.99" cy="419.449" rx="5.32509" ry="9.29765" fill="#EFB223"/>
<ellipse cx="188.799" cy="419.856" rx="5.55819" ry="9.70464" fill="#EFB223"/>
<ellipse cx="9.97423" cy="449.42" rx="2.91454" ry="5.0888" fill="#EFB223"/>
<ellipse cx="31.4996" cy="452.824" rx="4.8642" ry="8.49293" fill="#EFB223"/>
<ellipse cx="48.8638" cy="448.963" rx="2.65275" ry="4.63172" fill="#EFB223"/>
<ellipse cx="70.0801" cy="451.827" rx="4.29336" ry="7.49625" fill="#EFB223"/>
<ellipse cx="88.1177" cy="449.142" rx="2.75523" ry="4.81065" fill="#EFB223"/>
<ellipse cx="108.618" cy="450.756" rx="3.68" ry="6.4253" fill="#EFB223"/>
<ellipse cx="127.438" cy="449.437" rx="2.92451" ry="5.10621" fill="#EFB223"/>
<ellipse cx="148.167" cy="451.451" rx="4.07767" ry="7.11964" fill="#EFB223"/>
<ellipse cx="166.534" cy="449.339" rx="2.86852" ry="5.00845" fill="#EFB223"/>
<ellipse cx="186.243" cy="449.573" rx="3.00222" ry="5.2419" fill="#EFB223"/>
<ellipse cx="12.3233" cy="487.701" rx="5.2636" ry="9.19028" fill="#EFB223"/>
<ellipse cx="31.0804" cy="486.271" rx="4.44503" ry="7.76106" fill="#EFB223"/>
<ellipse cx="49.1278" cy="483.603" rx="2.9167" ry="5.09257" fill="#EFB223"/>
<ellipse cx="69.9491" cy="485.778" rx="4.16228" ry="7.26737" fill="#EFB223"/>
<ellipse cx="89.9002" cy="486.433" rx="4.5377" ry="7.92286" fill="#EFB223"/>
<ellipse cx="108.271" cy="484.329" rx="3.33253" ry="5.81861" fill="#EFB223"/>
<ellipse cx="127.179" cy="483.164" rx="2.66556" ry="4.65409" fill="#EFB223"/>
<ellipse cx="149.012" cy="487.105" rx="4.92258" ry="8.59486" fill="#EFB223"/>
<ellipse cx="167.453" cy="485.124" rx="3.78805" ry="6.61396" fill="#EFB223"/>
<ellipse cx="187.473" cy="485.9" rx="4.23246" ry="7.3899" fill="#EFB223"/>
<ellipse cx="10.765" cy="519.159" rx="3.70535" ry="6.46956" fill="#EFB223"/>
<ellipse cx="29.4221" cy="517.555" rx="2.78671" ry="4.86561" fill="#EFB223"/>
<ellipse cx="51.7163" cy="522.302" rx="5.50516" ry="9.61205" fill="#EFB223"/>
<ellipse cx="68.4298" cy="517.304" rx="2.64305" ry="4.61478" fill="#EFB223"/>
<ellipse cx="87.8672" cy="517.063" rx="2.50472" ry="4.37327" fill="#EFB223"/>
<ellipse cx="107.116" cy="516.491" rx="2.17734" ry="3.80165" fill="#EFB223"/>
<ellipse cx="127.722" cy="518.292" rx="3.20847" ry="5.60201" fill="#EFB223"/>
<ellipse cx="148.778" cy="520.875" rx="4.68813" ry="8.1855" fill="#EFB223"/>
<ellipse cx="169.054" cy="522.099" rx="5.38891" ry="9.40907" fill="#EFB223"/>
<ellipse cx="185.405" cy="516.468" rx="2.16394" ry="3.77825" fill="#EFB223"/>
<ellipse cx="9.47592" cy="551.088" rx="2.41623" ry="4.21875" fill="#EFB223"/>
<ellipse cx="30.3816" cy="553.41" rx="3.74623" ry="6.54094" fill="#EFB223"/>
<ellipse cx="51.4173" cy="555.959" rx="5.20616" ry="9.08999" fill="#EFB223"/>
<ellipse cx="69.975" cy="554.182" rx="4.18826" ry="7.31274" fill="#EFB223"/>
<ellipse cx="89.0298" cy="553.272" rx="3.6673" ry="6.40314" fill="#EFB223"/>
<ellipse cx="108.018" cy="552.247" rx="3.08027" ry="5.37817" fill="#EFB223"/>
<ellipse cx="128.116" cy="553.158" rx="3.60183" ry="6.28882" fill="#EFB223"/>
<ellipse cx="146.43" cy="550.955" rx="2.34036" ry="4.08629" fill="#EFB223"/>
<ellipse cx="166.034" cy="551.005" rx="2.36889" ry="4.13611" fill="#EFB223"/>
<ellipse cx="186.447" cy="552.466" rx="3.20592" ry="5.59756" fill="#EFB223"/>
<ellipse cx="9.68494" cy="585.632" rx="2.62524" ry="4.58369" fill="#EFB223"/>
<ellipse cx="30.7418" cy="588.218" rx="4.10637" ry="7.16975" fill="#EFB223"/>
<ellipse cx="51.4968" cy="590.277" rx="5.2857" ry="9.22888" fill="#EFB223"/>
<ellipse cx="71.0435" cy="590.226" rx="5.2567" ry="9.17824" fill="#EFB223"/>
<ellipse cx="90.6907" cy="590.351" rx="5.32818" ry="9.30303" fill="#EFB223"/>
<ellipse cx="109.915" cy="589.737" rx="4.97638" ry="8.68879" fill="#EFB223"/>
<ellipse cx="129.802" cy="590.281" rx="5.28809" ry="9.23304" fill="#EFB223"/>
<ellipse cx="149.701" cy="590.845" rx="5.61101" ry="9.79686" fill="#EFB223"/>
<ellipse cx="167.505" cy="587.753" rx="3.84021" ry="6.70503" fill="#EFB223"/>
<ellipse cx="187.109" cy="587.802" rx="3.86798" ry="6.75352" fill="#EFB223"/>
<ellipse cx="12.7981" cy="625.247" rx="5.73838" ry="10.0193" fill="#EFB223"/>
<ellipse cx="29.9723" cy="621.054" rx="3.33691" ry="5.82628" fill="#EFB223"/>
<ellipse cx="51.6003" cy="624.637" rx="5.38922" ry="9.40961" fill="#EFB223"/>
<ellipse cx="69.9535" cy="622.502" rx="4.16668" ry="7.27505" fill="#EFB223"/>
<ellipse cx="88.9332" cy="621.462" rx="3.57073" ry="6.23453" fill="#EFB223"/>
<ellipse cx="107.141" cy="619.073" rx="2.20263" ry="3.8458" fill="#EFB223"/>
<ellipse cx="129.361" cy="623.69" rx="4.84696" ry="8.46283" fill="#EFB223"/>
<ellipse cx="147.724" cy="621.574" rx="3.63476" ry="6.34631" fill="#EFB223"/>
<ellipse cx="166.241" cy="619.724" rx="2.57548" ry="4.49681" fill="#EFB223"/>
<ellipse cx="188.778" cy="624.895" rx="5.53679" ry="9.66728" fill="#EFB223"/>
<ellipse cx="11.5657" cy="657.274" rx="4.50599" ry="7.8675" fill="#EFB223"/>
<ellipse cx="29.5723" cy="654.535" rx="2.93692" ry="5.12789" fill="#EFB223"/>
<ellipse cx="49.9591" cy="655.951" rx="3.74805" ry="6.54412" fill="#EFB223"/>
<ellipse cx="68.479" cy="654.107" rx="2.69218" ry="4.70057" fill="#EFB223"/>
<ellipse cx="90.1024" cy="657.683" rx="4.73993" ry="8.27595" fill="#EFB223"/>
<ellipse cx="109.383" cy="657.168" rx="4.44518" ry="7.76131" fill="#EFB223"/>
<ellipse cx="127.872" cy="655.27" rx="3.35832" ry="5.86364" fill="#EFB223"/>
<ellipse cx="146.919" cy="654.347" rx="2.8293" ry="4.93998" fill="#EFB223"/>
<ellipse cx="166.676" cy="654.663" rx="3.01072" ry="5.25674" fill="#EFB223"/>
<ellipse cx="187.58" cy="656.983" rx="4.33922" ry="7.57631" fill="#EFB223"/>
<ellipse cx="11.2955" cy="690.982" rx="4.2358" ry="7.39574" fill="#EFB223"/>
<ellipse cx="30.6435" cy="690.584" rx="4.00813" ry="6.99822" fill="#EFB223"/>
<ellipse cx="51.383" cy="692.616" rx="5.17192" ry="9.03021" fill="#EFB223"/>
<ellipse cx="69.9455" cy="690.847" rx="4.15869" ry="7.2611" fill="#EFB223"/>
<ellipse cx="87.3763" cy="687.102" rx="2.01383" ry="3.51616" fill="#EFB223"/>
<ellipse cx="110.213" cy="692.795" rx="5.27458" ry="9.20946" fill="#EFB223"/>
<ellipse cx="127.136" cy="688.164" rx="2.62224" ry="4.57845" fill="#EFB223"/>
<ellipse cx="146.064" cy="687.033" rx="1.97423" ry="3.44702" fill="#EFB223"/>
<ellipse cx="169.517" cy="693.803" rx="5.85181" ry="10.2173" fill="#EFB223"/>
<ellipse cx="186.844" cy="689.877" rx="3.60292" ry="6.29073" fill="#EFB223"/>
<ellipse cx="12.8086" cy="727.803" rx="5.74887" ry="10.0376" fill="#EFB223"/>
<ellipse cx="30.5394" cy="724.582" rx="3.90396" ry="6.81634" fill="#EFB223"/>
<ellipse cx="51.5756" cy="727.132" rx="5.3645" ry="9.36645" fill="#EFB223"/>
<ellipse cx="68.2297" cy="722.031" rx="2.44293" ry="4.26538" fill="#EFB223"/>
<ellipse cx="88.8287" cy="723.817" rx="3.46623" ry="6.05206" fill="#EFB223"/>
<ellipse cx="107.859" cy="722.865" rx="2.92099" ry="5.10006" fill="#EFB223"/>
<ellipse cx="126.837" cy="721.822" rx="2.3235" ry="4.05685" fill="#EFB223"/>
<ellipse cx="148.76" cy="725.919" rx="4.66997" ry="8.15381" fill="#EFB223"/>
<ellipse cx="167.529" cy="724.511" rx="3.86336" ry="6.74545" fill="#EFB223"/>
<ellipse cx="187.432" cy="725.083" rx="4.19122" ry="7.3179" fill="#EFB223"/>
<ellipse cx="11.3571" cy="759.448" rx="4.29743" ry="7.50334" fill="#EFB223"/>
<ellipse cx="32.1089" cy="761.501" rx="5.47349" ry="9.55675" fill="#EFB223"/>
<ellipse cx="49.1454" cy="757.068" rx="2.93428" ry="5.12328" fill="#EFB223"/>
<ellipse cx="70.3221" cy="759.863" rx="4.53532" ry="7.9187" fill="#EFB223"/>
<ellipse cx="90.9402" cy="761.683" rx="5.57768" ry="9.73868" fill="#EFB223"/>
<ellipse cx="108.164" cy="757.577" rx="3.22606" ry="5.63273" fill="#EFB223"/>
<ellipse cx="126.594" cy="755.576" rx="2.07967" ry="3.63112" fill="#EFB223"/>
<ellipse cx="149.314" cy="761.067" rx="5.22458" ry="9.12215" fill="#EFB223"/>
<ellipse cx="168.903" cy="761.089" rx="5.23747" ry="9.14465" fill="#EFB223"/>
<ellipse cx="188.616" cy="761.329" rx="5.37466" ry="9.38419" fill="#EFB223"/>
<ellipse cx="10.049" cy="791.343" rx="2.98926" ry="5.21927" fill="#EFB223"/>
<ellipse cx="32.3717" cy="796.14" rx="5.73634" ry="10.0157" fill="#EFB223"/>
<ellipse cx="51.6138" cy="795.557" rx="5.40271" ry="9.43318" fill="#EFB223"/>
<ellipse cx="68.502" cy="790.865" rx="2.71527" ry="4.74089" fill="#EFB223"/>
<ellipse cx="89.2655" cy="792.939" rx="3.90301" ry="6.81467" fill="#EFB223"/>
<ellipse cx="107.421" cy="790.459" rx="2.48303" ry="4.33539" fill="#EFB223"/>
<ellipse cx="126.876" cy="790.248" rx="2.36229" ry="4.12458" fill="#EFB223"/>
<ellipse cx="148.318" cy="793.507" rx="4.22864" ry="7.38323" fill="#EFB223"/>
<ellipse cx="168.736" cy="794.978" rx="5.07106" ry="8.8541" fill="#EFB223"/>
<ellipse cx="188.73" cy="795.707" rx="5.48876" ry="9.58341" fill="#EFB223"/>
<ellipse cx="10.4218" cy="826.173" rx="3.36207" ry="5.87019" fill="#EFB223"/>
<ellipse cx="30.3275" cy="826.75" rx="3.69209" ry="6.44641" fill="#EFB223"/>
<ellipse cx="49.2089" cy="825.537" rx="2.99777" ry="5.23413" fill="#EFB223"/>
<ellipse cx="70.3511" cy="828.273" rx="4.56431" ry="7.96932" fill="#EFB223"/>
<ellipse cx="88.0274" cy="824.956" rx="2.66493" ry="4.65299" fill="#EFB223"/>
<ellipse cx="109.444" cy="828.17" rx="4.50556" ry="7.86674" fill="#EFB223"/>
<ellipse cx="129.291" cy="828.645" rx="4.7775" ry="8.34154" fill="#EFB223"/>
<ellipse cx="146.826" cy="825.081" rx="2.7362" ry="4.77742" fill="#EFB223"/>
<ellipse cx="166.125" cy="824.598" rx="2.45955" ry="4.2944" fill="#EFB223"/>
<ellipse cx="186.668" cy="826.287" rx="3.42713" ry="5.9838" fill="#EFB223"/>
<ellipse cx="11.9962" cy="863.102" rx="4.93652" ry="8.6192" fill="#EFB223"/>
<ellipse cx="29.5595" cy="859.588" rx="2.92404" ry="5.1054" fill="#EFB223"/>
<ellipse cx="49.5009" cy="860.227" rx="3.28979" ry="5.744" fill="#EFB223"/>
<ellipse cx="69.7353" cy="861.377" rx="3.94856" ry="6.89421" fill="#EFB223"/>
<ellipse cx="88.3758" cy="859.744" rx="3.01335" ry="5.26133" fill="#EFB223"/>
<ellipse cx="108.451" cy="860.616" rx="3.51279" ry="6.13336" fill="#EFB223"/>
<ellipse cx="128.549" cy="861.527" rx="4.03478" ry="7.04475" fill="#EFB223"/>
<ellipse cx="147.18" cy="859.878" rx="3.09006" ry="5.39527" fill="#EFB223"/>
<ellipse cx="165.952" cy="858.475" rx="2.28641" ry="3.99209" fill="#EFB223"/>
<ellipse cx="185.288" cy="858.057" rx="2.04725" ry="3.57452" fill="#EFB223"/>
<ellipse cx="10.3953" cy="894.486" rx="3.3356" ry="5.82399" fill="#EFB223"/>
<ellipse cx="29.8562" cy="894.285" rx="3.22077" ry="5.62349" fill="#EFB223"/>
<ellipse cx="50.898" cy="896.845" rx="4.68691" ry="8.18338" fill="#EFB223"/>
<ellipse cx="69.9223" cy="895.883" rx="4.13556" ry="7.22072" fill="#EFB223"/>
<ellipse cx="87.4809" cy="892.361" rx="2.11838" ry="3.69871" fill="#EFB223"/>
<ellipse cx="110.146" cy="897.755" rx="5.20782" ry="9.09288" fill="#EFB223"/>
<ellipse cx="128.163" cy="895.033" rx="3.64913" ry="6.37141" fill="#EFB223"/>
<ellipse cx="147.782" cy="895.109" rx="3.69237" ry="6.44691" fill="#EFB223"/>
<ellipse cx="168.332" cy="896.811" rx="4.66723" ry="8.14901" fill="#EFB223"/>
<ellipse cx="186.361" cy="894.11" rx="3.12038" ry="5.44821" fill="#EFB223"/>
<ellipse cx="11.4468" cy="930.501" rx="4.3871" ry="7.6599" fill="#EFB223"/>
<ellipse cx="30.464" cy="929.526" rx="3.82855" ry="6.68467" fill="#EFB223"/>
<ellipse cx="50.0752" cy="929.588" rx="3.86415" ry="6.74684" fill="#EFB223"/>
<ellipse cx="68.2298" cy="927.107" rx="2.44305" ry="4.26559" fill="#EFB223"/>
<ellipse cx="88.6542" cy="928.588" rx="3.29167" ry="5.74728" fill="#EFB223"/>
<ellipse cx="109.262" cy="930.39" rx="4.32377" ry="7.54934" fill="#EFB223"/>
<ellipse cx="126.544" cy="926.385" rx="2.02989" ry="3.54421" fill="#EFB223"/>
<ellipse cx="148.827" cy="931.112" rx="4.73702" ry="8.27086" fill="#EFB223"/>
<ellipse cx="168.236" cy="930.822" rx="4.57107" ry="7.98112" fill="#EFB223"/>
<ellipse cx="188.195" cy="931.491" rx="4.95421" ry="8.65008" fill="#EFB223"/>
<ellipse cx="12.6161" cy="966.722" rx="5.55639" ry="9.7015" fill="#EFB223"/>
<ellipse cx="31.994" cy="966.377" rx="5.35858" ry="9.35612" fill="#EFB223"/>
<ellipse cx="50.9717" cy="965.333" rx="4.76062" ry="8.31208" fill="#EFB223"/>
<ellipse cx="70.6389" cy="965.492" rx="4.85216" ry="8.47191" fill="#EFB223"/>
<ellipse cx="90.0686" cy="965.237" rx="4.70616" ry="8.21699" fill="#EFB223"/>
<ellipse cx="109.917" cy="965.714" rx="4.97915" ry="8.69364" fill="#EFB223"/>
<ellipse cx="130.215" cy="966.975" rx="5.70139" ry="9.95466" fill="#EFB223"/>
<ellipse cx="149.533" cy="966.525" rx="5.4438" ry="9.50491" fill="#EFB223"/>
<ellipse cx="169.154" cy="966.603" rx="5.48834" ry="9.58268" fill="#EFB223"/>
<ellipse cx="186.931" cy="963.463" rx="3.69003" ry="6.44282" fill="#EFB223"/>
<ellipse cx="11.627" cy="999.174" rx="4.56732" ry="7.97458" fill="#EFB223"/>
<ellipse cx="28.8189" cy="995.012" rx="2.18345" ry="3.81232" fill="#EFB223"/>
<ellipse cx="48.9752" cy="996.026" rx="2.7641" ry="4.82614" fill="#EFB223"/>
<ellipse cx="68.3706" cy="995.711" rx="2.58378" ry="4.5113" fill="#EFB223"/>
<ellipse cx="89.523" cy="998.464" rx="4.16051" ry="7.26428" fill="#EFB223"/>
<ellipse cx="108.916" cy="998.145" rx="3.97753" ry="6.94479" fill="#EFB223"/>
<ellipse cx="129.959" cy="1000.71" rx="5.44522" ry="9.5074" fill="#EFB223"/>
<ellipse cx="148.833" cy="999.481" rx="4.74297" ry="8.28127" fill="#EFB223"/>
<ellipse cx="166.913" cy="996.87" rx="3.24742" ry="5.67001" fill="#EFB223"/>
<ellipse cx="187.702" cy="998.989" rx="4.46142" ry="7.78967" fill="#EFB223"/>
<ellipse cx="9.70299" cy="1029.99" rx="2.6433" ry="4.61522" fill="#EFB223"/>
<ellipse cx="31.3132" cy="1033.55" rx="4.67784" ry="8.16754" fill="#EFB223"/>
<ellipse cx="51.3993" cy="1034.44" rx="5.18819" ry="9.05862" fill="#EFB223"/>
<ellipse cx="71.1323" cy="1034.71" rx="5.34554" ry="9.33335" fill="#EFB223"/>
<ellipse cx="89.2463" cy="1032.16" rx="3.88378" ry="6.78111" fill="#EFB223"/>
<ellipse cx="109.989" cy="1034.2" rx="5.05078" ry="8.8187" fill="#EFB223"/>
<ellipse cx="127.462" cy="1030.53" rx="2.94828" ry="5.14772" fill="#EFB223"/>
<ellipse cx="147.338" cy="1031.05" rx="3.24845" ry="5.67181" fill="#EFB223"/>
<ellipse cx="168.266" cy="1033.41" rx="4.60118" ry="8.0337" fill="#EFB223"/>
<ellipse cx="188.752" cy="1035" rx="5.51108" ry="9.62238" fill="#EFB223"/>
<ellipse cx="10.3907" cy="1065.37" rx="3.33105" ry="5.81603" fill="#EFB223"/>
<ellipse cx="28.6002" cy="1062.99" rx="1.96475" ry="3.43046" fill="#EFB223"/>
<ellipse cx="50.2116" cy="1066.54" rx="4.00055" ry="6.98498" fill="#EFB223"/>
<ellipse cx="67.7842" cy="1063.05" rx="1.99739" ry="3.48745" fill="#EFB223"/>
<ellipse cx="90.8705" cy="1069.18" rx="5.50803" ry="9.61707" fill="#EFB223"/>
<ellipse cx="110.264" cy="1068.86" rx="5.32609" ry="9.29939" fill="#EFB223"/>
<ellipse cx="127.44" cy="1064.67" rx="2.92612" ry="5.10903" fill="#EFB223"/>
<ellipse cx="148.972" cy="1068.08" rx="4.88214" ry="8.52425" fill="#EFB223"/>
<ellipse cx="167.252" cy="1065.82" rx="3.58724" ry="6.26335" fill="#EFB223"/>
<ellipse cx="186.112" cy="1064.57" rx="2.87147" ry="5.01361" fill="#EFB223"/>
</svg>
